<svg width="100" height="100" viewBox="0 0 100 100" fill="none" xmlns="http://www.w3.org/2000/svg">
<rect width="100" height="100" rx="50" fill="#F9D880"/>
<g clip-path="url(#clip0_40_1483)">
<path d="M29.3826 62.9312L30.0643 61.4106L46.7799 68.9027L46.0982 70.4236L29.3826 62.9312Z" fill="black"/>
<path d="M47.3262 70.9748L48.0079 69.4539L49.6658 70.197L48.9837 71.7179L47.3262 70.9748Z" fill="black"/>
<path d="M66.6511 38.3206L67.3324 36.8L76.7772 41.0332L76.0955 42.5538L66.6511 38.3206Z" fill="black"/>
<path d="M56.4391 46.7932H58.1058V48.4599H56.4391V46.7932Z" fill="black"/>
<path d="M45.6061 46.7932H47.2728V48.4599H45.6061V46.7932Z" fill="black"/>
<path d="M77.2716 45.9604C77.272 45.6316 77.079 45.3337 76.7791 45.1994L64.0712 39.5029C64.8452 38.5271 65.4773 37.4468 65.9488 36.294C66.6298 34.8081 67.2737 33.4039 68.7214 32.5365C69.1158 32.3 69.2444 31.7884 69.0078 31.3936C68.9712 31.3326 68.927 31.2765 68.8762 31.2265C68.8228 31.175 63.5582 26.1259 57.4649 29.4557C55.4527 30.586 54.0634 32.5701 53.6891 34.8474L52.6176 34.3664C52.4009 34.2695 52.153 34.2695 51.9359 34.3664L49.9885 35.24C49.3141 34.0166 48.3074 33.0091 47.0844 32.3339C40.9889 29.001 35.7269 34.0532 35.6735 34.1047C35.3446 34.4271 35.3393 34.9546 35.6616 35.2835C35.7112 35.3342 35.7673 35.3784 35.8283 35.4147C37.276 36.2821 37.9199 37.6863 38.6009 39.1722C38.7458 39.4888 38.8984 39.8138 39.0582 40.1396L27.7664 45.1994C27.346 45.3871 27.1575 45.8799 27.3456 46.3003C27.4291 46.4876 27.579 46.6375 27.7664 46.7211L32.5759 48.8768L27.7664 51.0324C27.346 51.2201 27.1575 51.713 27.3456 52.1334C27.4291 52.3207 27.579 52.4706 27.7664 52.5541L32.5759 54.7098L27.7664 56.8655C27.346 57.0536 27.1575 57.546 27.3456 57.9664C27.4291 58.1537 27.579 58.3036 27.7664 58.3872L51.9317 69.2202C52.1488 69.3175 52.3967 69.3175 52.6134 69.2202L76.7791 58.3872C77.1995 58.1995 77.3876 57.7066 77.1999 57.2866C77.1164 57.0993 76.9665 56.9494 76.7791 56.8655L71.9696 54.7098L76.7791 52.5541C77.1995 52.3664 77.3876 51.8736 77.1999 51.4536C77.1164 51.2663 76.9665 51.1164 76.7791 51.0324L71.9696 48.8768L76.7791 46.7211C77.079 46.5868 77.272 46.2889 77.2716 45.9604ZM58.2641 30.9168C62.075 28.8336 65.4621 30.6974 66.9353 31.7774C65.8313 32.852 64.978 34.1562 64.4355 35.5982C63.7207 37.1565 63.0466 38.6289 61.4433 39.5716C60.4992 40.0476 59.3971 40.0999 58.4125 39.7146C58.1089 39.6097 57.8144 39.4796 57.5325 39.3255C58.7562 37.1248 60.329 35.1366 62.1891 33.439L61.0683 32.2058C59.1304 33.9769 57.484 36.0418 56.1893 38.3257C55.8929 38.0342 55.6549 37.689 55.4878 37.3083C54.8133 35.6409 55.5458 32.4026 58.2641 30.9168ZM37.6159 34.6666C39.0956 33.5974 42.5048 31.7365 46.2821 33.8007C49.0005 35.2873 49.7329 38.5248 49.0604 40.1922C48.8945 40.5699 48.6583 40.9124 48.3646 41.202C47.068 38.9204 45.4193 36.8578 43.4799 35.0897L42.3564 36.3188C44.2199 38.0152 45.7958 40.0022 47.023 42.2029C46.7395 42.3578 46.4439 42.4887 46.1387 42.5947C45.1538 42.98 44.0509 42.9281 43.1064 42.4513C41.5031 41.5087 40.829 40.0347 40.1142 38.4779C39.5713 37.0382 38.7184 35.7355 37.6159 34.6624V34.6666ZM74.4018 57.6265L52.2727 67.5429L30.1437 57.6265L34.6126 55.6265L51.9321 63.3906C52.1488 63.4874 52.3967 63.4874 52.6138 63.3906L69.9321 55.6265L74.4018 57.6265ZM74.4018 51.7935L52.2727 61.7094L30.1437 51.7935L34.6126 49.7934L51.9321 57.5575C52.1488 57.6544 52.3967 57.6544 52.6138 57.5575L69.9329 49.7934L74.4018 51.7935ZM52.2727 55.8764L30.1437 45.9604L39.8792 41.5972C40.4853 42.5341 41.2998 43.318 42.2592 43.8879C42.9916 44.3106 43.8247 44.5288 44.6704 44.5196C45.3517 44.5139 46.0273 44.3964 46.6705 44.1721C47.0523 44.039 47.4224 43.8749 47.7771 43.6811C48.3428 44.8774 48.806 46.1195 49.1611 47.3944L50.7671 46.9526C50.3623 45.4973 49.8264 44.0821 49.1653 42.7236C49.7856 42.2048 50.2788 41.5506 50.6061 40.8113C51.0673 39.5067 51.0787 38.0857 50.6385 36.7739L52.2727 36.0441L53.6304 36.6522C53.6758 37.0905 53.7796 37.5208 53.9394 37.9316C54.2682 38.6751 54.7641 39.3324 55.3886 39.8531C54.3048 42.0778 53.5579 44.4513 53.1726 46.8962L53.0803 47.5L54.7267 47.7503L54.8202 47.146C55.1658 44.9491 55.8242 42.8129 56.776 40.8029C57.1281 40.9948 57.4955 41.1573 57.8743 41.2889C58.517 41.514 59.193 41.6311 59.8739 41.6365C60.72 41.6456 61.5528 41.4274 62.2856 41.0047C62.4382 40.9147 62.5724 40.8148 62.7124 40.7179L74.4018 45.9604L52.2727 55.8764Z" fill="black"/>
</g>
<defs>
<clipPath id="clip0_40_1483">
<rect width="50" height="50" fill="white" transform="translate(27.2727 25)"/>
</clipPath>
</defs>
</svg>
