<svg width="203" height="26" viewBox="0 0 203 26" fill="none" xmlns="http://www.w3.org/2000/svg">
<path d="M25.5 0L28.4187 8.98278H37.8637L30.2225 14.5344L33.1412 23.5172L25.5 17.9656L17.8588 23.5172L20.7775 14.5344L13.1363 8.98278H22.5813L25.5 0Z" fill="#2A3D36"/>
<path d="M63.5 0L66.4187 8.98278H75.8637L68.2225 14.5344L71.1412 23.5172L63.5 17.9656L55.8588 23.5172L58.7775 14.5344L51.1363 8.98278H60.5813L63.5 0Z" fill="#2A3D36"/>
<path d="M101.5 0L104.419 8.98278H113.864L106.223 14.5344L109.141 23.5172L101.5 17.9656L93.8588 23.5172L96.7775 14.5344L89.1363 8.98278H98.5813L101.5 0Z" fill="#2A3D36"/>
<path d="M139.5 0L142.419 8.98278H151.864L144.223 14.5344L147.141 23.5172L139.5 17.9656L131.859 23.5172L134.777 14.5344L127.136 8.98278H136.581L139.5 0Z" fill="#2A3D36"/>
<path d="M177.5 0L180.419 8.98278H189.864L182.223 14.5344L185.141 23.5172L177.5 17.9656L169.859 23.5172L172.777 14.5344L165.136 8.98278H174.581L177.5 0Z" fill="#2A3D36"/>
</svg>
