<svg width="100" height="100" viewBox="0 0 100 100" fill="none" xmlns="http://www.w3.org/2000/svg">
<rect width="100" height="100" rx="50" fill="#F9D880"/>
<path d="M28.5962 35.5484C29.2192 35.7808 29.6753 36.2829 29.8477 36.9261C30.0201 37.5693 29.8761 38.2323 29.4529 38.7451C29.2712 38.9651 29.2454 39.2748 29.388 39.522C29.5307 39.7691 29.8116 39.9014 30.0933 39.8543C30.749 39.7443 31.3953 39.951 31.8661 40.4219C32.3369 40.8928 32.5437 41.5389 32.4335 42.1946C32.3863 42.476 32.5188 42.7572 32.7659 42.8998C33.0128 43.0424 33.3227 43.0166 33.5428 42.835C34.052 42.4145 34.7146 42.2729 35.3602 42.4458C36.006 42.6189 36.5087 43.0729 36.7396 43.6915C36.8393 43.9589 37.0947 44.1362 37.3801 44.1362C37.6655 44.1362 37.9208 43.9589 38.0207 43.6915C38.2531 43.0685 38.7552 42.6123 39.3985 42.44C40.0417 42.2677 40.7046 42.4116 41.2174 42.8349C41.4375 43.0165 41.7473 43.0424 41.9944 42.8997C42.2416 42.7571 42.374 42.4759 42.3267 42.1945C42.2166 41.5387 42.4234 40.8926 42.8943 40.4217C43.3652 39.9508 44.0113 39.744 44.6669 39.8542C44.9484 39.9016 45.2296 39.769 45.3722 39.5219C45.5149 39.2747 45.4891 38.965 45.3074 38.745C44.8871 38.2358 44.7452 37.5733 44.9182 36.9276C45.0913 36.2819 45.5453 35.779 46.1639 35.5482C46.4313 35.4485 46.6085 35.1931 46.6085 34.9077C46.6085 34.6223 46.4313 34.3669 46.1639 34.2671C45.541 34.0347 45.0848 33.5326 44.9125 32.8893C44.7401 32.2461 44.884 31.5831 45.3074 31.0703C45.489 30.8503 45.5149 30.5406 45.3722 30.2934C45.2295 30.0462 44.9485 29.9137 44.6669 29.9611C44.0116 30.0715 43.3651 29.8644 42.8943 29.3936C42.4234 28.9227 42.2166 28.2766 42.3267 27.6207C42.374 27.3393 42.2415 27.0581 41.9944 26.9155C41.7472 26.773 41.4375 26.7987 41.2173 26.9803C40.7082 27.4006 40.0458 27.5425 39.4 27.3696C38.7542 27.1965 38.2514 26.7425 38.0206 26.1238C37.9208 25.8564 37.6655 25.6791 37.3801 25.6791C37.0948 25.6791 36.8394 25.8564 36.7396 26.1238C36.5072 26.7467 36.005 27.2029 35.3619 27.3751C34.7187 27.5476 34.0557 27.4036 33.5428 26.9803C33.3228 26.7987 33.0129 26.7728 32.7659 26.9155C32.5187 27.0581 32.3862 27.3393 32.4335 27.6207C32.5437 28.2765 32.3369 28.9226 31.866 29.3935C31.3952 29.8643 30.7492 30.0711 30.0933 29.961C29.8122 29.9141 29.5307 30.0462 29.388 30.2933C29.2454 30.5405 29.2711 30.8502 29.4529 31.0703C29.8732 31.5794 30.0151 32.2419 29.842 32.8876C29.669 33.5333 29.215 34.0362 28.5962 34.267C28.3289 34.3671 28.1516 34.6225 28.1516 34.9078C28.1516 35.1932 28.3289 35.4486 28.5962 35.5484ZM31.1626 33.2418C31.3396 32.5812 31.3186 31.9092 31.1135 31.2912C31.7545 31.1613 32.3491 30.8442 32.8329 30.3605C33.3162 29.8772 33.6331 29.2834 33.7632 28.6431C34.3829 28.8505 35.0557 28.8729 35.7158 28.696C36.3766 28.519 36.9485 28.1627 37.3815 27.6725C37.8141 28.1591 38.3856 28.5133 39.0462 28.6904C39.7068 28.8674 40.3787 28.8461 40.9967 28.6411C41.1267 29.2822 41.4438 29.8768 41.9276 30.3606C42.4109 30.8438 43.0046 31.1608 43.6449 31.291C43.4375 31.9106 43.4151 32.5832 43.5919 33.2435C43.769 33.9043 44.1253 34.4762 44.6155 34.9092C44.129 35.3419 43.7747 35.9132 43.5977 36.5739C43.4208 37.2345 43.4417 37.9065 43.6468 38.5245C43.0059 38.6544 42.4113 38.9715 41.9275 39.4552C41.4442 39.9385 41.1273 40.5323 40.9971 41.1726C40.3776 40.9652 39.7049 40.9428 39.0446 41.1197C38.3837 41.2967 37.8119 41.6531 37.3789 42.1432C36.9461 41.6567 36.3749 41.3024 35.7142 41.1254C35.4141 41.0451 35.1119 41.0055 34.8132 41.0055C34.4543 41.0055 34.1009 41.0626 33.7636 41.1745C33.6337 40.5335 33.3166 39.939 32.8329 39.4552C32.3496 38.9719 31.7558 38.655 31.1155 38.5248C31.3229 37.9052 31.3453 37.2325 31.1684 36.5723C30.9914 35.9115 30.635 35.3396 30.1449 34.9066C30.6314 34.4739 30.9856 33.9025 31.1626 33.2418ZM37.3801 39.9493C40.16 39.9493 42.4215 37.6877 42.4215 34.9078C42.4215 32.128 40.16 29.8664 37.3801 29.8664C34.6003 29.8664 32.3387 32.128 32.3387 34.9078C32.3387 37.6877 34.6003 39.9493 37.3801 39.9493ZM37.3801 31.2336C39.4061 31.2336 41.0543 32.8819 41.0543 34.9078C41.0543 36.9338 39.4061 38.5821 37.3801 38.5821C35.3542 38.5821 33.7059 36.9338 33.7059 34.9078C33.7059 32.8819 35.3542 31.2336 37.3801 31.2336ZM75.7102 72.5543H65.7547V60.6184C65.8428 60.6119 65.9302 60.6053 66.0198 60.5988C68.1137 60.4456 70.4871 60.2721 72.3308 59.0324C74.388 57.649 76.0568 54.7448 76.389 51.97C76.433 51.6033 76.1777 51.268 75.8125 51.2128C72.9515 50.7796 69.7781 51.5998 67.9163 53.2531C66.9969 54.0696 66.2971 55.1907 65.7547 56.32V51.6511C65.8429 51.6446 65.9304 51.638 66.02 51.6315C68.1138 51.4786 70.4871 51.305 72.3307 50.0652C74.3879 48.6818 76.0567 45.7776 76.3889 43.0028C76.4329 42.6362 76.1776 42.3008 75.8125 42.2456C72.951 41.8125 69.7779 42.6327 67.9162 44.2859C66.9968 45.1023 66.297 46.2235 65.7546 47.3527V44.3675C66.995 42.5127 68.5262 40.2106 68.7067 37.8204C68.8942 35.3376 67.6243 32.3162 65.5464 30.302C65.2813 30.045 64.8599 30.045 64.5948 30.302C62.5883 32.2473 61.2886 35.3344 61.4342 37.8092C61.5647 40.0272 62.8645 42.0206 64.0112 43.7793C64.1403 43.9773 64.2655 44.1703 64.3875 44.3604V47.3377C63.846 46.2135 63.1485 45.0986 62.2332 44.2858C60.3714 42.6325 57.1984 41.8126 54.337 42.2454C53.9718 42.3007 53.7166 42.636 53.7605 43.0026C54.0927 45.7775 55.7615 48.6816 57.8187 50.065C59.6624 51.3048 62.0356 51.4784 64.1294 51.6313C64.2166 51.6376 64.3016 51.6441 64.3875 51.6504V56.3049C63.846 55.1807 63.1485 54.0659 62.2332 53.253C60.3714 51.5996 57.1984 50.7794 54.337 51.2127C53.9718 51.2679 53.7166 51.6032 53.7605 51.9699C54.0927 54.7447 55.7615 57.6489 57.8187 59.0323C59.6624 60.272 62.0358 60.4455 64.1297 60.5987C64.2167 60.605 64.3017 60.6114 64.3875 60.6177V72.5541H48.2388V69.588C48.2422 69.5877 48.2456 69.5875 48.249 69.5872C49.6987 69.4813 51.503 69.3494 52.8674 68.4319C54.3855 67.411 55.6165 65.2724 55.8608 63.2314C55.9047 62.8647 55.6495 62.5294 55.2843 62.4743C53.1462 62.1508 50.8627 62.7434 49.4663 63.9835C48.9778 64.4173 48.5746 64.964 48.2388 65.5435V64.2455C49.1347 62.9054 50.2229 61.2507 50.3545 59.508C50.4952 57.6455 49.5832 55.4696 48.0308 53.9647C47.7656 53.7077 47.3443 53.7077 47.0791 53.9648C45.6033 55.3956 44.6475 57.6704 44.7549 59.4967C44.8515 61.1379 45.8393 62.6531 46.6332 63.8705C46.7147 63.9955 46.7939 64.1177 46.8716 64.2384V65.5346C46.5369 64.9583 46.1354 64.415 45.6495 63.9834C44.2529 62.7432 41.9691 62.1507 39.8314 62.4742C39.4663 62.5293 39.211 62.8646 39.2549 63.2313C39.4993 65.2723 40.7302 67.4109 42.2483 68.4318C43.6127 69.3494 45.4169 69.4812 46.8667 69.5871C46.8683 69.5872 46.8699 69.5873 46.8715 69.5875V72.554H32.3709C32.3266 72.2753 32.2615 71.9757 32.1907 71.6524C31.8102 69.9141 31.6134 68.5236 32.8 67.7589C32.9479 67.6636 33.0942 67.5898 33.2386 67.5353C33.364 68.4849 33.7831 69.4105 34.3864 69.9987C35.0822 70.6768 36.0728 70.9335 36.8688 71.14C36.9813 71.1692 37.0911 71.1976 37.1965 71.2264C37.2559 71.2426 37.3165 71.2505 37.3765 71.2505C37.542 71.2505 37.7042 71.1904 37.831 71.0776C38.0038 70.9239 38.0871 70.6932 38.0525 70.4647L38.0325 70.3299C37.9256 69.6014 37.7467 68.3822 37.0923 67.546C36.4154 66.6809 35.1658 66.0971 33.909 66.0588C32.7 66.0219 31.4619 66.7744 30.9125 67.8468C30.2439 69.1523 30.598 70.7702 30.8551 71.9447C30.9016 72.1571 30.9464 72.3635 30.9828 72.554H28.8352C28.4577 72.554 28.1516 72.8601 28.1516 73.2376C28.1516 73.6152 28.4577 73.9212 28.8352 73.9212H75.7102C76.0877 73.9212 76.3938 73.6152 76.3938 73.2376C76.3938 72.8601 76.0877 72.5543 75.7102 72.5543ZM68.824 54.2753C70.1124 53.1312 72.1706 52.4629 74.2356 52.4629C74.4641 52.4629 74.693 52.4711 74.9207 52.4878C74.4724 54.6748 73.1541 56.831 71.5677 57.8978C70.0617 58.9105 67.9471 59.0864 66.0569 59.2251C66.5894 57.7007 67.4655 55.4817 68.824 54.2753ZM68.824 45.308C70.1124 44.164 72.1706 43.4957 74.2356 43.4957C74.4641 43.4957 74.693 43.5039 74.9207 43.5205C74.4724 45.7076 73.1541 47.8637 71.5677 48.9305C70.0618 49.9433 67.947 50.1192 66.0569 50.2579C66.5894 48.7334 67.4656 46.5144 68.824 45.308ZM58.5817 48.9306C56.9953 47.8638 55.677 45.7077 55.2288 43.5206C57.5137 43.3532 59.8945 44.0374 61.3254 45.3081C62.6839 46.5145 63.5601 48.7335 64.0925 50.258C62.2024 50.1193 60.0876 49.9433 58.5817 48.9306ZM58.5817 57.8979C56.9953 56.831 55.677 54.6748 55.2288 52.4879C57.5137 52.3205 59.8945 53.0046 61.3254 54.2754C62.684 55.4819 63.5601 57.7008 64.0925 59.2253C62.2023 59.0865 60.0877 58.9106 58.5817 57.8979ZM62.7992 37.7288C62.687 35.8204 63.6038 33.4654 65.0723 31.7838C66.5893 33.5007 67.4876 35.8091 67.3435 37.7173C67.2099 39.4851 66.1186 41.3303 65.0791 42.9137C64.045 41.3268 62.9056 39.5392 62.7992 37.7288ZM50.3741 65.0061C51.2634 64.2162 52.6881 63.7552 54.1212 63.7552C54.2061 63.7552 54.2911 63.7569 54.3758 63.7602C54.0222 65.1922 53.1315 66.6069 52.1044 67.2976C51.1432 67.9439 49.7954 68.0977 48.5439 68.1945C48.9252 67.1432 49.5137 65.77 50.3741 65.0061ZM43.0113 67.2976C41.9842 66.6069 41.0934 65.1921 40.7399 63.7602C42.2578 63.7005 43.7998 64.1696 44.7417 65.0061C45.602 65.77 46.1905 67.1432 46.5718 68.1944C45.3204 68.0977 43.9724 67.9439 43.0113 67.2976ZM46.1198 59.4167C46.0471 58.1813 46.6331 56.6155 47.5582 55.4667C48.5236 56.6381 49.0861 58.149 48.9913 59.4053C48.9058 60.5365 48.2409 61.7326 47.561 62.7897C46.8807 61.7363 46.1877 60.5718 46.1198 59.4167ZM36.0158 68.3889C36.2619 68.7034 36.4168 69.1751 36.5198 69.6256C36.064 69.4841 35.6303 69.3022 35.3408 69.02C34.9952 68.6831 34.7333 68.1248 34.6229 67.5428C35.1976 67.7022 35.7193 68.0099 36.0158 68.3889Z" fill="black"/>
</svg>
