<svg height="512" viewBox="0 0 345 345" width="512" xmlns="http://www.w3.org/2000/svg"><g id="body"><path d="m130.2 67.81c.63-14.61 6.27-29.68 17.41-39.7 9.22-8.29 22.64-12.64 34.43-8.77 12.72 4.18 21 16.68 25.19 29.37a77.39 77.39 0 0 1 2.1 43c-3.53 14.1-11.73 27.13-23.43 35.75-6 4.45-13.41 7.8-20.88 7-7.3-.82-13.68-5.58-18.12-11.43-6-7.95-10.56-18.62-13.26-28.16a86.23 86.23 0 0 1 -3.44-27.06z" fill="#d2f7ff"/><path d="m167.34 136.43a22.5 22.5 0 0 1 -2.54-.14c-7.09-.8-14.17-5.24-19.42-12.18-5.51-7.28-10.46-17.77-13.57-28.79a87.66 87.66 0 0 1 -3.51-27.6c.71-16.41 7.29-31.37 18-41 10.43-9.38 24.68-13 36.3-9.16s21.22 14.91 26.4 30.55a78.74 78.74 0 0 1 2.14 44 65.22 65.22 0 0 1 -24.14 36.89c-4.74 3.49-11.84 7.43-19.66 7.43zm5.58-116.6a36.68 36.68 0 0 0 -24 9.69c-10 9-16.11 23-16.78 38.37a83.85 83.85 0 0 0 3.37 26.39c3 10.58 7.71 20.61 12.94 27.52 4.62 6.11 10.75 10 16.81 10.69 7.59.85 14.81-3.11 19.53-6.59a61.39 61.39 0 0 0 22.71-34.68 74.94 74.94 0 0 0 -2.06-41.91c-4.83-14.48-13.57-24.74-24-28.16a27.31 27.31 0 0 0 -8.52-1.31z" fill="#42210b"/><path d="m185.87 65.19c8.65-13.79 22.4-25.28 38.69-28.84 13.49-3 28.86.23 38.14 10.46 10 11 11.1 27.66 8.22 42.28-3.13 15.87-10.44 31-21.61 42.74s-26.31 19.8-42.31 21.7c-8.3 1-17.27.16-24-4.76-6.61-4.81-10.17-12.93-11.24-21-1.45-11 0-23.83 2.66-34.54a96 96 0 0 1 11.45-28.04z" fill="#9fecfe"/><path d="m201 155.8c-6.23 0-13.36-1.22-19.22-5.48-6.37-4.64-10.75-12.78-12-22.33-1.33-10-.34-22.89 2.7-35.25a97.4 97.4 0 0 1 11.76-28.57c9.69-15.44 24.23-26.26 39.9-29.69 15.18-3.32 30.87 1 40 11s12.22 26 8.68 43.93c-3.34 16.93-11 32-22.11 43.69-11.89 12.46-27.34 20.37-43.5 22.28a52.53 52.53 0 0 1 -6.21.42zm-13.53-89.6a93.66 93.66 0 0 0 -11.27 27.46c-2.93 11.91-3.89 24.24-2.62 33.83 1.12 8.52 4.94 15.71 10.47 19.74 6.92 5 16.16 5.17 22.68 4.4 15.28-1.81 29.91-9.31 41.19-21.13 10.61-11.12 17.92-25.57 21.12-41.79 3.31-16.74.48-31.54-7.76-40.63s-22.45-12.9-36.28-9.87c-14.67 3.21-28.33 13.41-37.48 28z" fill="#42210b"/><path d="m116.41 135.35c-1-8.6-2.42-17.66-6.41-25.62a44.6 44.6 0 0 0 -22.47-20.87 7.23 7.23 0 0 0 -.24-3.42c-.94-2.88-4.2-5.65-7.44-5a10.06 10.06 0 0 0 -6.42 5.6 6.78 6.78 0 0 0 2.22 7.37 7.49 7.49 0 0 0 8.81.36 7.06 7.06 0 0 0 1.54-1.42 40.72 40.72 0 0 1 20.61 19.08c3.51 7 5 14.81 6 24.34a1.91 1.91 0 0 0 1.9 1.69h.22a1.91 1.91 0 0 0 1.68-2.11z" fill="#42210b"/><path d="m248.76 202.46a48.26 48.26 0 0 1 -2.35 7.7 55.79 55.79 0 0 1 -11.17 17.36 70.17 70.17 0 0 1 -23.24 16.29 90.31 90.31 0 0 1 -10.2 3.69 115.59 115.59 0 0 1 -27 4.44 182.92 182.92 0 0 1 -38-2.31c-1.76-.28-3.52-.59-5.27-.94-15.65-3.09-31.09-9-42.95-19.84-32.74-29.85-22.72-85.17 14.52-106.62 13.42-7.73 29.24-10.73 44.7-10q4.86.23 9.68.91a138.22 138.22 0 0 1 35.15 10.18c.78.33 1.56.68 2.33 1a129.38 129.38 0 0 1 24.12 13.76 81.83 81.83 0 0 1 19.92 20.31q1.88 2.83 3.5 5.84a62 62 0 0 1 7.05 22.42 50.05 50.05 0 0 1 -.79 15.81z" fill="#fec200"/><path d="m166.87 254.06a195.2 195.2 0 0 1 -30.38-2.54c-1.71-.27-3.5-.59-5.34-1-18.3-3.62-33.06-10.45-43.87-20.3-15-13.67-22.28-33.75-20-55.09 2.51-23.07 15.53-43.49 34.84-54.6 13-7.5 28.83-11.07 45.74-10.28 3.28.15 6.6.47 9.86.93a140.42 140.42 0 0 1 35.63 10.32c.78.33 1.57.68 2.36 1a131.36 131.36 0 0 1 24.47 14 83.76 83.76 0 0 1 20.34 20.79c1.29 1.94 2.5 4 3.59 6a64.29 64.29 0 0 1 7.27 23.12 52 52 0 0 1 -.8 16.42 50.28 50.28 0 0 1 -2.44 8 57.52 57.52 0 0 1 -11.55 18 72.06 72.06 0 0 1 -23.91 16.74 92.71 92.71 0 0 1 -10.41 3.77 117.68 117.68 0 0 1 -27.43 4.51q-3.84.21-7.97.21zm-23.52-140.06c-14.52 0-28 3.38-39.29 9.87-18.26 10.53-30.58 29.86-32.95 51.72-2.19 20.11 4.64 39 18.74 51.85 10.29 9.38 24.43 15.9 42 19.38 1.79.35 3.54.66 5.2.93a181.07 181.07 0 0 0 37.6 2.29 113.94 113.94 0 0 0 26.54-4.36 89.15 89.15 0 0 0 10-3.62 68.23 68.23 0 0 0 22.64-15.84 53.77 53.77 0 0 0 10.79-16.76 46.56 46.56 0 0 0 2.26-7.39 48.14 48.14 0 0 0 .73-15.21 60.43 60.43 0 0 0 -6.84-21.73c-1-1.93-2.18-3.84-3.4-5.67a79.93 79.93 0 0 0 -19.37-19.84 127.62 127.62 0 0 0 -23.77-13.55c-.77-.34-1.54-.69-2.3-1a136.64 136.64 0 0 0 -34.67-10c-3.15-.44-6.35-.74-9.51-.89q-2.23-.18-4.4-.18z" fill="#42210b"/><path d="m271.14 200.26c-.51 2.52-3.74 3.78-6.49 4.58l-18.24 5.32a48.26 48.26 0 0 0 2.35-7.7 50.05 50.05 0 0 0 .77-15.82c1.65.61 3.27 1.35 4.86 2.07 4 1.82 8.16 3.47 12 5.54 2.53 1.36 5.28 3.41 4.75 6.01z" fill="#533324"/><path d="m243.19 213.09 1.45-3.64a46.56 46.56 0 0 0 2.26-7.39 48.14 48.14 0 0 0 .73-15.21l-.33-3.06 2.89 1.07c1.78.66 3.56 1.47 5 2.13 1.12.5 2.25 1 3.38 1.49 2.9 1.27 5.91 2.58 8.76 4.11 4.39 2.36 6.31 5.08 5.7 8.07-.72 3.54-4.57 5.08-7.83 6l-18.26 5.34zm8.48-23.5a51.13 51.13 0 0 1 -1 13.28c-.32 1.47-.71 2.94-1.17 4.41l14.61-4.28c3.19-.93 4.92-2 5.16-3.13.22-1.1-1.15-2.54-3.76-3.94s-5.64-2.73-8.48-4c-1.15-.5-2.29-1-3.43-1.51z" fill="#42210b"/><path d="m123.89 96.73a44.59 44.59 0 0 0 -18-26.33 7.14 7.14 0 0 0 .41-2.91c-.23-3-2.78-6.48-6.05-6.6a10.06 10.06 0 0 0 -7.56 3.94 6.78 6.78 0 0 0 .42 7.69 7.5 7.5 0 0 0 5.89 2.86 6.94 6.94 0 0 0 4.73-1.81 40.7 40.7 0 0 1 16.4 24c1.76 7.65 1.33 15.56.13 25.08a1.91 1.91 0 0 0 1.74 2.15h.24a1.91 1.91 0 0 0 1.89-1.67c1.04-8.58 1.76-17.72-.24-26.4z" fill="#42210b"/><path d="m175.87 249.84c-.36.7-.72 1.41-1.09 2.11a182.92 182.92 0 0 1 -38-2.31c-1.76-.28-3.52-.59-5.27-.94a134.47 134.47 0 0 0 28.91-59.58c4.63-22.21 4-53.08-2.93-76a138.22 138.22 0 0 1 35.15 10.18c.78.33 1.56.68 2.33 1 12.24 44.7-3.46 95.06-19.1 125.54z" fill="#533324"/><path d="m166.87 254.06a195.2 195.2 0 0 1 -30.38-2.54c-1.71-.27-3.5-.59-5.34-1l-3.2-.63 2.11-2.48a132.55 132.55 0 0 0 28.49-58.73c4.85-23.25 3.68-53.42-2.89-75.06l-.87-2.86 3 .41a140.4 140.4 0 0 1 35.64 10.32c.78.33 1.57.68 2.36 1l.82.37.24.87c14.81 54.07-11 110.8-19.24 126.89l-.22.43c-.29.57-.58 1.14-.88 1.7l-.51 1-1.08.06q-3.92.25-8.05.25zm-31.81-6.65 2 .34a181.93 181.93 0 0 0 36.51 2.34l.36-.7.22-.43c8.05-15.7 33.12-70.79 19.19-123.27l-1.47-.64a139.67 139.67 0 0 0 -31.74-9.6c6 21.94 6.89 51.25 2.14 74.06a136.67 136.67 0 0 1 -27.22 57.9z" fill="#42210b"/><path d="m235.24 227.52a70.17 70.17 0 0 1 -23.24 16.29 90.31 90.31 0 0 1 -10.2 3.69c19.93-30.73 25.65-67.75 17.33-109.43a81.83 81.83 0 0 1 19.87 20.32q1.88 2.83 3.5 5.84a133.9 133.9 0 0 1 -7.26 63.29z" fill="#533324"/><path d="m197.34 250.82 2.82-4.35c19.6-30.21 25.34-66.55 17.06-108l-1-4.83 4 2.91a83.75 83.75 0 0 1 20.34 20.79c1.29 1.94 2.5 4 3.59 6l.17.32v.36a136.72 136.72 0 0 1 -7.32 64.16l-.13.36-.26.28a72.07 72.07 0 0 1 -23.92 16.74 92.71 92.71 0 0 1 -10.41 3.77zm24.56-108.16c6.72 38.41 1.43 72.48-15.74 101.39 1.74-.63 3.42-1.29 5-2a68.31 68.31 0 0 0 22.38-15.56 132.91 132.91 0 0 0 7-61.69c-1-1.82-2.07-3.63-3.23-5.36a77.21 77.21 0 0 0 -15.42-16.78z" fill="#42210b"/><g fill="#fff"><path d="m260 77.81a1.91 1.91 0 0 1 -1.91-1.91 31.83 31.83 0 0 0 -13.3-25.68 1.91 1.91 0 1 1 2.2-3.12 35.7 35.7 0 0 1 14.95 28.8 1.91 1.91 0 0 1 -1.94 1.91z"/><path d="m259.83 88.73a1.91 1.91 0 0 1 -1.77-2.63 5.16 5.16 0 0 0 .33-2.67 1.91 1.91 0 0 1 3.78-.54 9 9 0 0 1 -.57 4.66 1.91 1.91 0 0 1 -1.77 1.18z"/><path d="m129.06 238.16a1.94 1.94 0 0 1 -.37 0 65.87 65.87 0 0 1 -19.44-7.06 1.91 1.91 0 1 1 1.85-3.34 62.06 62.06 0 0 0 18.31 6.65 1.91 1.91 0 0 1 -.36 3.79z"/><path d="m140.79 240.91a1.87 1.87 0 0 1 -.33 0l-3.78-.66a1.91 1.91 0 0 1 .66-3.76l3.78.66a1.91 1.91 0 0 1 -.33 3.79z"/></g><path d="m211.28 329c-4.08 0-8.22-.14-12.3-.41a1.91 1.91 0 0 1 -1.78-2 1.94 1.94 0 0 1 2-1.78c5 .33 10.09.46 15.11.37a1.91 1.91 0 0 1 0 3.82zm18.35-.92a1.91 1.91 0 0 1 -.19-3.81c5-.5 10-1.21 15-2.12a1.91 1.91 0 0 1 .69 3.76c-5 .93-10.18 1.66-15.28 2.17zm-45.71-1.14h-.29c-5.09-.77-10.18-1.77-15.15-3a1.91 1.91 0 0 1 .89-3.71c4.86 1.17 9.85 2.15 14.83 2.9a1.91 1.91 0 0 1 -.28 3.8zm75.72-4.41a1.91 1.91 0 0 1 -.5-3.75c4.86-1.33 9.7-2.88 14.39-4.6a1.91 1.91 0 1 1 1.32 3.58c-4.79 1.77-9.74 3.35-14.71 4.71a1.92 1.92 0 0 1 -.49.04zm-105.4-2.74a1.94 1.94 0 0 1 -.61-.1c-4.89-1.65-9.74-3.52-14.41-5.58a1.91 1.91 0 1 1 1.54-3.5c4.56 2 9.3 3.85 14.08 5.45a1.91 1.91 0 0 1 -.61 3.72zm134-7.81a1.91 1.91 0 0 1 -.82-3.64c4.56-2.15 9.05-4.53 13.35-7.06a1.91 1.91 0 1 1 1.94 3.29c-4.4 2.59-9 5-13.66 7.22a1.9 1.9 0 0 1 -.76.21zm-162-4.51a1.9 1.9 0 0 1 -.93-.24c-3.92-2.18-8.12-4.69-13.21-7.89a1.91 1.91 0 1 1 2-3.23c5 3.16 9.16 5.64 13 7.78a1.91 1.91 0 0 1 -.93 3.58zm188.26-11a1.91 1.91 0 0 1 -1.12-3.46 102.63 102.63 0 0 0 11.62-9.58 1.91 1.91 0 0 1 2.67 2.74 106.48 106.48 0 0 1 -12 9.93 1.91 1.91 0 0 1 -1.09.36zm-214.24-5.09a1.9 1.9 0 0 1 -1-.3c-3.78-2.42-8.28-5.26-12.94-8a1.91 1.91 0 0 1 1.92-3.3c4.73 2.75 9.26 5.61 13.08 8.05a1.91 1.91 0 0 1 -1 3.52zm-98.35-11.44a1.91 1.91 0 0 1 -1.28-3.33 48.88 48.88 0 0 1 13.37-8.52 1.91 1.91 0 0 1 1.53 3.5 45 45 0 0 0 -12.3 7.85 1.91 1.91 0 0 1 -1.32.5zm71.9-3.69a1.9 1.9 0 0 1 -.8-.18 110.89 110.89 0 0 0 -14-5.44 1.91 1.91 0 1 1 1.13-3.63 114.44 114.44 0 0 1 14.48 5.62 1.91 1.91 0 0 1 -.81 3.64zm262.19-1.25a1.91 1.91 0 0 1 -1.61-2.93 46.79 46.79 0 0 0 5.88-13.39 1.91 1.91 0 0 1 3.7 1 50.55 50.55 0 0 1 -6.36 14.48 1.91 1.91 0 0 1 -1.61.84zm-306.59-7.34a1.91 1.91 0 0 1 -.26-3.8 59.25 59.25 0 0 1 8-.55 70.53 70.53 0 0 1 7.69.43 1.91 1.91 0 1 1 -.42 3.8 66.2 66.2 0 0 0 -7.15-.41 55.82 55.82 0 0 0 -7.62.52zm313.68-21.79a1.91 1.91 0 0 1 -1.89-1.63c-.07-.5-.16-1-.26-1.49a34.73 34.73 0 0 0 -4.89-11.93 1.91 1.91 0 1 1 3.22-2.05 38.52 38.52 0 0 1 5.42 13.23c.11.55.21 1.11.29 1.67a1.91 1.91 0 0 1 -1.61 2.17zm-15.62-25.47a1.9 1.9 0 0 1 -1.21-.43 55.68 55.68 0 0 0 -6.66-4.68c-1.84-1.1-3.82-2.16-5.88-3.15a1.91 1.91 0 1 1 1.65-3.45c2.17 1 4.25 2.15 6.2 3.32a59.56 59.56 0 0 1 7.12 5 1.91 1.91 0 0 1 -1.21 3.39zm-27.18-13.54a1.91 1.91 0 0 1 -.57-.09c-4.94-1.53-9.94-2.81-14.64-4a1.91 1.91 0 0 1 .93-3.71c4.75 1.19 9.81 2.48 14.85 4a1.91 1.91 0 0 1 -.57 3.73z" fill="#42210b"/></g><g id="emott"><path d="m145.79 183a4 4 0 0 1 -1.38-.25 4.29 4.29 0 0 1 -2.6-3.07 8.35 8.35 0 0 1 1.19-6.68 4.3 4.3 0 0 1 4.85-1.37 5.34 5.34 0 0 1 3.46 4.92 6.94 6.94 0 0 1 -1.48 4.2 5.19 5.19 0 0 1 -4.04 2.25z" fill="#ff81ff"/><path d="m76.86 180.59a4 4 0 0 1 -1.38-.25 4.29 4.29 0 0 1 -2.6-3.07 8.35 8.35 0 0 1 1.21-6.7 4.3 4.3 0 0 1 4.85-1.37 5.34 5.34 0 0 1 3.46 4.92 6.94 6.94 0 0 1 -1.48 4.2 5.19 5.19 0 0 1 -4.06 2.27z" fill="#ff81ff"/><g fill="#42210b"><path d="m88 163a2.46 2.46 0 0 1 -.46-4.88l.62-.11a2.46 2.46 0 0 1 1.65-4.48 31.9 31.9 0 0 1 13.7 4.88 2.46 2.46 0 0 1 -1.8 4.49 36.8 36.8 0 0 0 -13.25.06 2.53 2.53 0 0 1 -.46.04z"/><path d="m136.4 167a2.45 2.45 0 0 1 -1-.19 36.75 36.75 0 0 0 -12.9-2.81 2.46 2.46 0 0 1 -.83-4.76 32 32 0 0 1 14.42-1.93 2.46 2.46 0 0 1 .69 4.73l.58.24a2.46 2.46 0 0 1 -1 4.73z"/><path d="m110.57 196q-.78 0-1.57-.07a18.32 18.32 0 0 1 -16.31-21.93 2.46 2.46 0 0 1 4.82 1 13.4 13.4 0 0 0 11.92 16 10.47 10.47 0 0 0 5.59-.93 12.22 12.22 0 0 0 5.06-5.45 41.46 41.46 0 0 0 2.79-8.12 2.46 2.46 0 0 1 4.75 1.28 45.07 45.07 0 0 1 -3.16 9.09 16.84 16.84 0 0 1 -7.24 7.61 14.9 14.9 0 0 1 -6.65 1.52z"/></g></g></svg>