<svg width="512" height="512" viewBox="0 0 512 512" fill="none" xmlns="http://www.w3.org/2000/svg">
<path d="M451.96 214.088C447.168 211.36 423 198.536 387.88 197.632C387.128 160.488 373.264 135.776 372.624 134.672C371.152 132.112 368.64 130.664 365.272 130.656C358.792 130.848 337.152 132.552 311.88 144.448C292.288 101.304 261.56 82.0321 260.184 81.1921C257.608 79.6241 254.384 79.6241 251.808 81.1921C250.44 82.0401 219.632 101.352 200.032 144.608C174.504 132.568 152.6 130.848 145.928 130.656C142.88 130.544 140.04 132.24 138.6 134.92C135.232 141.208 124.032 164.56 123.416 197.656C87.008 198.888 62.752 212.544 60 214.16C57.52 215.624 56.016 218.32 56.08 221.208C56.144 223.952 58.248 288.944 122.248 334.28C152.064 355.488 194.288 368.04 232.968 368.04C239.448 368.04 245.792 367.608 252 366.888C256.008 368 261.712 366.888 263.744 366.344C271.04 367.416 278.464 367.992 285.984 367.992C321.816 367.992 359.24 356.056 389.824 334.296C453.84 289.008 455.944 223.96 456 221.208C456.064 218.272 454.504 215.536 451.96 214.088ZM131.504 321.232C82.928 286.824 74.048 240.664 72.432 225.696C80.408 221.872 99.064 214.52 124.048 213.672C125.416 229.584 129.32 247.12 137.56 265.784C153.592 302.048 182.048 332.784 214.704 350.808C184.672 347.608 153.792 337.088 131.504 321.232ZM152.2 259.328C128.592 205.84 144.032 161.488 150.528 146.952C159.24 147.752 175.592 150.512 194.184 159.48C189.712 172.384 186.6 186.12 185.08 200.528C179.928 249.928 193.088 299.576 218.888 334.8C190.744 318.264 166.28 291.176 152.2 259.328ZM256.024 350.168C255.856 350.064 255.688 349.968 255.52 349.872C217.336 320.904 194.944 260.368 201 202.2C202.648 186.664 206.184 171.952 211.528 158.448C225.008 124.12 246.896 104.744 256.008 97.7841C265.112 104.728 286.944 124.064 300.408 158.288C305.832 172.056 309.4 186.832 311.016 202.192C317.136 260.792 294.56 321.352 256.024 350.168ZM326.912 200.52C325.408 186.232 322.264 172.44 317.728 159.328C336.04 150.512 352.144 147.768 360.872 146.96C364.816 155.72 372.776 177.088 371.848 205.336C371.248 223.4 366.976 241.568 359.16 259.312C344.528 292.272 319.44 320.544 291.104 337.44C318.264 302.152 332.232 251.36 326.912 200.52ZM380.56 321.24C356.32 338.488 327.456 348.808 298.992 351.272C330.264 332.648 357.824 301.752 373.792 265.776C381.32 248.68 385.688 231.192 387.176 213.68C412.48 214.352 431.104 221.608 439.632 225.704C438.024 240.696 429.144 286.872 380.56 321.24Z" fill="#2A3D36"/>
<path d="M464 408C436.792 408 422.984 412.248 409.632 416.352C396.848 420.288 384.776 424 359.968 424C335.168 424 323.096 420.288 310.312 416.352C296.96 412.248 283.16 408 255.944 408C228.752 408 214.96 412.248 201.616 416.352C188.84 420.288 176.776 424 151.992 424C127.192 424 115.128 420.288 102.344 416.352C89 412.248 75.192 408 48 408V424C72.792 424 84.856 427.712 97.64 431.648C110.984 435.752 124.792 440 151.992 440C179.184 440 192.976 435.752 206.32 431.648C219.096 427.712 231.168 424 255.944 424C280.752 424 292.824 427.712 305.608 431.648C318.96 435.752 332.768 440 359.968 440C387.176 440 400.984 435.752 414.336 431.648C427.12 427.712 439.192 424 464 424V408Z" fill="#2A3D36"/>
<path d="M464 480V464C436.792 464 422.984 468.248 409.632 472.352C396.848 476.288 384.776 480 359.968 480C335.168 480 323.096 476.288 310.312 472.352C296.96 468.248 283.16 464 255.944 464C228.752 464 214.96 468.248 201.616 472.352C188.84 476.288 176.776 480 151.992 480C127.192 480 115.128 476.288 102.344 472.352C89 468.248 75.192 464 48 464V480C72.792 480 84.856 483.712 97.64 487.648C110.984 491.752 124.792 496 151.992 496C179.184 496 192.976 491.752 206.32 487.648C219.096 483.712 231.168 480 255.944 480C280.752 480 292.824 483.712 305.608 487.648C318.96 491.752 332.768 496 359.968 496C387.176 496 400.984 491.752 414.336 487.648C427.12 483.712 439.192 480 464 480Z" fill="#2A3D36"/>
<path d="M464 16H480V32H464V16Z" fill="#2A3D36"/>
<path d="M464 48H480V64H464V48Z" fill="#2A3D36"/>
<path d="M480 32H496V48H480V32Z" fill="#2A3D36"/>
<path d="M448 32H464V48H448V32Z" fill="#2A3D36"/>
<path d="M32 16H48V32H32V16Z" fill="#2A3D36"/>
<path d="M32 48H48V64H32V48Z" fill="#2A3D36"/>
<path d="M48 32H64V48H48V32Z" fill="#2A3D36"/>
<path d="M16 32H32V48H16V32Z" fill="#2A3D36"/>
</svg>
