<svg id="Layer_1_1_" enable-background="new 0 0 64 64" height="512" viewBox="0 0 64 64" width="512" xmlns="http://www.w3.org/2000/svg"><path d="m56.495 26.761c-.599-.341-3.62-1.944-8.01-2.057-.094-4.643-1.827-7.732-1.907-7.87-.184-.32-.498-.501-.919-.502-.81.024-3.515.237-6.674 1.724-2.449-5.393-6.29-7.802-6.462-7.907-.322-.196-.725-.196-1.047 0-.171.106-4.022 2.52-6.472 7.927-3.191-1.505-5.929-1.72-6.763-1.744-.381-.014-.736.198-.916.533-.421.786-1.821 3.705-1.898 7.842-4.551.154-7.583 1.861-7.927 2.063-.31.183-.498.52-.49.881.008.343.271 8.467 8.271 14.134 3.727 2.651 9.005 4.22 13.84 4.22.81 0 1.603-.054 2.379-.144.501.139 1.214 0 1.468-.068.912.134 1.84.206 2.78.206 4.479 0 9.157-1.492 12.98-4.212 8.002-5.661 8.265-13.792 8.272-14.136.008-.367-.187-.709-.505-.89zm-40.057 13.393c-6.072-4.301-7.182-10.071-7.384-11.942.997-.478 3.329-1.397 6.452-1.503.171 1.989.659 4.181 1.689 6.514 2.004 4.533 5.561 8.375 9.643 10.628-3.754-.4-7.614-1.715-10.4-3.697zm2.587-7.738c-2.951-6.686-1.021-12.23-.209-14.047 1.089.1 3.133.445 5.457 1.566-.559 1.613-.948 3.33-1.138 5.131-.644 6.175 1.001 12.381 4.226 16.784-3.518-2.067-6.576-5.453-8.336-9.434zm12.978 11.355c-.021-.013-.042-.025-.063-.037-4.773-3.621-7.572-11.188-6.815-18.459.206-1.942.648-3.781 1.316-5.469 1.685-4.291 4.421-6.713 5.56-7.583 1.138.868 3.867 3.285 5.55 7.563.678 1.721 1.124 3.568 1.326 5.488.765 7.325-2.057 14.895-6.874 18.497zm8.861-18.706c-.188-1.786-.581-3.51-1.148-5.149 2.289-1.102 4.302-1.445 5.393-1.546.493 1.095 1.488 3.766 1.372 7.297-.075 2.258-.609 4.529-1.586 6.747-1.829 4.12-4.965 7.654-8.507 9.766 3.395-4.411 5.141-10.76 4.476-17.115zm6.706 15.09c-3.03 2.156-6.638 3.446-10.196 3.754 3.909-2.328 7.354-6.19 9.35-10.687.941-2.137 1.487-4.323 1.673-6.512 3.163.084 5.491.991 6.557 1.503-.201 1.874-1.311 7.646-7.384 11.942z"/><path d="m58 51c-3.401 0-5.127.531-6.796 1.044-1.598.492-3.107.956-6.208.956-3.1 0-4.609-.464-6.207-.956-1.669-.513-3.394-1.044-6.796-1.044-3.399 0-5.123.531-6.791 1.044-1.597.492-3.105.956-6.203.956-3.1 0-4.608-.464-6.206-.956-1.668-.513-3.394-1.044-6.793-1.044v2c3.099 0 4.607.464 6.205.956 1.668.513 3.394 1.044 6.794 1.044 3.399 0 5.123-.531 6.791-1.044 1.597-.492 3.106-.956 6.203-.956 3.101 0 4.61.464 6.208.956 1.669.513 3.395 1.044 6.795 1.044 3.401 0 5.127-.531 6.796-1.044 1.598-.492 3.107-.956 6.208-.956z"/><path d="m58 60v-2c-3.401 0-5.127.531-6.796 1.044-1.598.492-3.107.956-6.208.956-3.1 0-4.609-.464-6.207-.956-1.669-.513-3.394-1.044-6.796-1.044-3.399 0-5.123.531-6.791 1.044-1.597.492-3.105.956-6.203.956-3.1 0-4.608-.464-6.206-.956-1.668-.513-3.394-1.044-6.793-1.044v2c3.099 0 4.607.464 6.205.956 1.668.513 3.394 1.044 6.794 1.044 3.399 0 5.123-.531 6.791-1.044 1.597-.492 3.106-.956 6.203-.956 3.101 0 4.61.464 6.208.956 1.669.513 3.395 1.044 6.795 1.044 3.401 0 5.127-.531 6.796-1.044 1.598-.492 3.107-.956 6.208-.956z"/><path d="m58 2h2v2h-2z"/><path d="m58 6h2v2h-2z"/><path d="m60 4h2v2h-2z"/><path d="m56 4h2v2h-2z"/><path d="m4 2h2v2h-2z"/><path d="m4 6h2v2h-2z"/><path d="m6 4h2v2h-2z"/><path d="m2 4h2v2h-2z"/></svg>