<svg width="200" height="222" viewBox="0 0 200 222" fill="none" xmlns="http://www.w3.org/2000/svg">
<g opacity="0.5" clip-path="url(#clip0_40_1365)">
<path d="M1.3484 156.789C2.79186 149.227 44.3317 133.235 84.052 105.481C123.772 77.7276 181.689 47.5109 181.759 55.0354C181.828 62.5598 100.627 104.201 66.8623 122.153C33.0979 140.105 -1.26601 170.5 1.3484 156.789Z" fill="#F9D880"/>
<path d="M118.636 52.2842C118.636 52.2842 75.8296 107.01 81.9947 111.617C88.1598 116.223 150.285 126.787 164.086 120.084C177.887 113.38 156.028 118.109 136.709 115.902C117.389 113.696 90.9852 111.641 93.4633 102.254C95.9414 92.867 132.407 45.6324 128.342 44.3866C124.278 43.1408 118.636 52.2842 118.636 52.2842Z" fill="#F9D880"/>
<path d="M41.2406 134.714C41.2406 134.714 72.8907 67.1544 82.0055 62.8322C91.1202 58.5099 54.5669 119.277 58.6103 125.649C62.6538 132.02 134.464 138.238 131.071 147.299C127.679 156.36 41.2406 134.714 41.2406 134.714Z" fill="#F9D880"/>
<path d="M145.544 52.1608C137.764 60.4705 115.484 86.387 119.543 89.5349C123.602 92.6828 180.947 94.6618 182.529 87.4605C184.112 80.2593 127.015 88.0583 129.168 83.0536C131.321 78.049 168.55 40.3224 162.283 40.9872C156.016 41.652 148.983 48.4878 145.544 52.1608Z" fill="#F9D880"/>
<path d="M37.31 105.091C37.31 105.091 17.6251 145.677 19.9068 148.095C22.1885 150.513 73.5766 177.447 87.0901 176.337C100.604 175.226 82.2164 160.573 70.1866 156.564C58.1568 152.555 26.0125 142.379 29.7493 137.948C33.486 133.517 58.6147 88.0667 52.3911 86.7411C46.1674 85.4155 37.31 105.091 37.31 105.091Z" fill="#F9D880"/>
</g>
<defs>
<clipPath id="clip0_40_1365">
<rect width="125.072" height="183.369" fill="white" transform="translate(91.6843) rotate(30)"/>
</clipPath>
</defs>
</svg>
