<svg width="50" height="60" viewBox="0 0 50 60" fill="none" xmlns="http://www.w3.org/2000/svg">
<path d="M19.0039 17.8398C17.7717 17.8562 16.5639 17.495 15.543 16.8046C12.3735 14.6371 11.1595 9.31995 11.9298 1.00538C11.9454 0.830723 12.0023 0.662287 12.096 0.514031C12.1896 0.365774 12.3172 0.241965 12.4683 0.15286C12.6193 0.0637552 12.7894 0.0119206 12.9644 0.0016505C13.1395 -0.00861963 13.3145 0.0229705 13.4749 0.0938036C13.8633 0.259345 23.0078 4.25219 24.4866 10.2205C24.7532 11.3716 24.7367 12.5702 24.4384 13.7135C24.14 14.8568 23.5689 15.9107 22.7739 16.7847C22.6746 16.9078 22.5505 17.0086 22.4097 17.0805C21.3409 17.5716 20.1801 17.8304 19.0039 17.8398ZM14.0002 2.80647C13.4837 10.8716 15.1921 13.8801 16.7746 14.9726C17.4443 15.3557 18.1949 15.5754 18.9654 15.6138C19.7359 15.6521 20.5046 15.5081 21.2089 15.1933C21.7326 14.5942 22.1074 13.88 22.303 13.1087C22.4986 12.3374 22.5094 11.5309 22.3346 10.7546C21.4274 7.08625 16.4767 4.09769 14.0002 2.80647Z" fill="#2A3D36"/>
<path d="M9.30965 34.1956C6.7982 34.1582 4.29559 33.8885 1.83382 33.3899C1.66277 33.3576 1.50179 33.2853 1.36403 33.1789C1.22627 33.0725 1.11563 32.935 1.04115 32.7777C0.966682 32.6203 0.930485 32.4476 0.935521 32.2736C0.940556 32.0996 0.986682 31.9293 1.07013 31.7765C1.27319 31.4057 6.11361 22.6828 12.1945 21.7778C13.366 21.6191 14.5586 21.748 15.6692 22.1534C16.7797 22.5587 17.775 23.2282 18.5689 24.1042C18.6804 24.2157 18.7682 24.3486 18.8272 24.4949C19.2482 25.616 19.3841 26.8241 19.2227 28.0107C19.0612 29.1973 18.6075 30.3252 17.9023 31.2931C16.2911 33.2156 13.4129 34.1956 9.30965 34.1956ZM3.81149 31.4873C11.8104 32.7675 14.9734 31.3483 16.205 29.8694C16.6492 29.2419 16.938 28.518 17.0478 27.757C17.1575 26.9961 17.085 26.22 16.8362 25.4925C16.2883 24.9143 15.612 24.4732 14.862 24.2048C14.112 23.9364 13.3093 23.8482 12.5189 23.9475C9.02934 24.4684 5.56622 28.7791 3.81149 31.4873Z" fill="#2A3D36"/>
<path d="M32.9026 27.6486C31.9152 27.661 30.9329 27.505 29.9979 27.1873C28.8904 26.775 27.8992 26.1006 27.109 25.222C26.3187 24.3433 25.7529 23.2864 25.4599 22.1416C25.4111 21.9915 25.3961 21.8325 25.4157 21.6759C25.5677 20.4863 26.0135 19.3534 26.7129 18.3792C27.4123 17.405 28.3433 16.6204 29.4218 16.0961C32.971 14.6437 38.0807 16.5574 44.5986 21.7796C44.7345 21.8885 44.8427 22.028 44.9143 22.1867C44.986 22.3454 45.0191 22.5188 45.0109 22.6927C45.0027 22.8666 44.9535 23.0362 44.8673 23.1874C44.781 23.3387 44.6602 23.4674 44.5147 23.5631C41.0379 25.8571 37.0499 27.2602 32.9026 27.6486ZM27.645 21.7178C27.8565 22.4859 28.2467 23.1931 28.7838 23.7816C29.3208 24.37 29.9895 24.8231 30.7351 25.1037C34.313 26.3706 39.522 23.8831 41.9566 22.5257C35.4983 17.6433 32.0396 17.4248 30.2583 18.1466C29.571 18.4922 28.9756 18.9963 28.5212 19.6172C28.0668 20.2381 27.7665 20.9581 27.645 21.7178Z" fill="#2A3D36"/>
<path d="M20.0127 51.3146C19.931 51.3144 19.8496 51.3056 19.7699 51.2882C19.6281 51.2561 19.4941 51.1964 19.3755 51.1124C19.2569 51.0285 19.156 50.9219 19.0787 50.7988C19.0014 50.6758 18.9491 50.5387 18.9249 50.3954C18.9008 50.2521 18.9051 50.1054 18.9377 49.9638C23.8245 28.4303 20.8691 16.4848 20.8359 16.3678C20.7622 16.0845 20.804 15.7835 20.9522 15.531C21.1004 15.2785 21.3428 15.0952 21.6261 15.0214C21.9095 14.9477 22.2105 14.9895 22.463 15.1377C22.7155 15.2859 22.8988 15.5283 22.9725 15.8116C23.1028 16.3127 26.1112 28.3309 21.0876 50.4649C21.0304 50.7069 20.8931 50.9225 20.698 51.0768C20.5029 51.231 20.2614 51.3148 20.0127 51.3146Z" fill="#2A3D36"/>
<path d="M22.8577 28.3265C22.652 28.3265 22.4505 28.2691 22.2758 28.1607C22.1011 28.0522 21.9601 27.8972 21.8688 27.7129C21.4897 27.0517 20.9116 26.5268 20.217 26.213C19.5223 25.8991 18.7464 25.8123 17.9996 25.9648C17.8568 25.992 17.7101 25.9906 17.5678 25.9609C17.4255 25.9312 17.2905 25.8737 17.1706 25.7916C17.0506 25.7096 16.948 25.6047 16.8687 25.4829C16.7894 25.3611 16.7349 25.2248 16.7084 25.0819C16.6531 24.7964 16.7127 24.5006 16.8743 24.2588C17.0359 24.017 17.2864 23.8488 17.5714 23.7907C18.7942 23.5343 20.0672 23.6819 21.1988 24.2114C22.3305 24.7408 23.2596 25.6233 23.8465 26.7263C23.9757 26.9883 23.9958 27.2909 23.9023 27.5677C23.8088 27.8445 23.6093 28.073 23.3477 28.2029C23.1964 28.2822 23.0285 28.3245 22.8577 28.3265Z" fill="#2A3D36"/>
<path d="M26.6098 22.4282C26.5432 22.4277 26.4767 22.4218 26.4111 22.4105L22.3962 21.6866C22.11 21.6325 21.8569 21.4676 21.6918 21.2276C21.5268 20.9877 21.4632 20.6923 21.5151 20.4057C21.5669 20.1191 21.7299 19.8647 21.9685 19.6978C22.2072 19.5309 22.5021 19.4651 22.7891 19.5147L26.804 20.2386C27.075 20.2877 27.3179 20.4363 27.4849 20.6553C27.6519 20.8743 27.731 21.1478 27.7067 21.4221C27.6823 21.6964 27.5563 21.9517 27.3534 22.1379C27.1504 22.3241 26.8852 22.4276 26.6098 22.4282Z" fill="#2A3D36"/>
<path d="M48.0926 59.9999H2.36353C2.07537 60 1.7986 59.8874 1.59238 59.6861C1.38616 59.4848 1.26684 59.2109 1.25992 58.9228C1.04646 56.9974 1.42258 55.0526 2.33853 53.3456C3.25449 51.6387 4.6671 50.25 6.38949 49.3634C7.4274 48.8965 8.33245 48.178 9.02269 47.2731C10.9251 44.9913 13.1816 43.0299 15.7061 41.4638C17.2024 40.4581 18.8851 39.7624 20.6547 39.4178C22.4243 39.0732 24.2451 39.0866 26.0094 39.4574C29.8511 40.2323 33.3494 42.2024 36.0037 45.0858C37.2672 46.4265 38.8965 47.3666 40.6896 47.7896C45.9869 48.997 49.0152 58.1635 49.141 58.5564C49.1946 58.7219 49.2083 58.8977 49.181 59.0695C49.1537 59.2412 49.0862 59.4041 48.984 59.5449C48.8818 59.6856 48.7477 59.8002 48.5928 59.8793C48.4379 59.9583 48.2665 59.9997 48.0926 59.9999ZM3.48479 57.7927H46.5056C45.3622 54.994 43.016 50.584 40.1974 49.9417C37.9924 49.4196 35.986 48.2696 34.4211 46.6308C32.0892 44.0831 29.0126 42.3366 25.6298 41.6403C24.1459 41.3224 22.6134 41.3051 21.1228 41.5894C19.6321 41.8737 18.2136 42.4539 16.951 43.2957C14.6333 44.7073 12.5614 46.4876 10.8172 48.5666C9.91945 49.7696 8.73292 50.7269 7.36728 51.3499C6.18188 51.9526 5.1895 52.8761 4.50312 54.0151C3.81673 55.1542 3.4639 56.463 3.48479 57.7927Z" fill="#2A3D36"/>
</svg>
