<svg width="100" height="101" viewBox="0 0 100 101" fill="none" xmlns="http://www.w3.org/2000/svg">
<rect y="0.5" width="100" height="100" rx="50" fill="#F9D880"/>
<path d="M37.8788 69.4997H62.1212C62.3221 69.4997 62.5148 69.4199 62.6569 69.2778C62.799 69.1358 62.8788 68.9431 62.8788 68.7422C62.8788 68.5412 62.799 68.3485 62.6569 68.2065C62.5148 68.0644 62.3221 67.9846 62.1212 67.9846H59.8327C59.7296 66.9786 59.316 66.0297 58.6492 65.2694C57.16 63.5528 54.5048 62.6816 50.7576 62.6816H50.7454C50.7471 62.6604 50.7576 62.6424 50.7576 62.6209V60.1793C51.6624 60.5996 52.6463 60.8229 53.6439 60.8343C54.2983 60.835 54.9483 60.7272 55.5674 60.5154C56.9348 60.0437 58.1709 59.2546 59.1743 58.2129C60.1778 57.1711 60.92 55.9063 61.3401 54.5222C61.3816 54.3604 61.3684 54.1895 61.3026 54.0361C61.2369 53.8826 61.1222 53.7552 60.9765 53.6737C60.8426 53.5989 57.6673 51.8641 53.1432 53.4081C52.2075 53.7253 51.3805 54.3004 50.7576 55.0672V51.6524C51.1959 51.3517 51.5601 50.9553 51.8226 50.4931C52.0851 50.0309 52.239 49.5151 52.2727 48.9846C52.1967 47.4027 51.595 45.8913 50.563 44.69C50.4928 44.612 50.4072 44.5495 50.3116 44.5063C50.216 44.4631 50.1125 44.4402 50.0076 44.4391H50C49.8963 44.4393 49.7937 44.4607 49.6986 44.5021C49.6034 44.5434 49.5178 44.6039 49.4469 44.6796C48.4056 45.8529 47.8001 47.3491 47.7324 48.9164C47.7463 49.4625 47.8906 49.9973 48.1533 50.4763C48.4159 50.9552 48.7894 51.3644 49.2424 51.6697V53.1578C48.9201 52.7937 48.5521 52.4727 48.1475 52.2028C43.258 48.9447 39.1764 51.3231 39.0041 51.426C38.8676 51.5078 38.7604 51.6306 38.6977 51.7768C38.635 51.923 38.62 52.0853 38.6548 52.2406C39.0347 53.6546 39.6985 54.9766 40.6057 56.1259C41.5129 57.2752 42.6446 58.2277 43.9318 58.9256C44.8209 59.3838 45.8088 59.6172 46.809 59.6054C47.6341 59.5986 48.4537 59.472 49.2424 59.2296V62.6209C49.2424 62.6425 49.2529 62.6605 49.2547 62.6816H49.2424C45.4952 62.6816 42.84 63.5523 41.3507 65.2694C40.6839 66.0297 40.2703 66.9786 40.1673 67.9846H37.8788C37.6778 67.9846 37.4852 68.0644 37.3431 68.2065C37.201 68.3485 37.1212 68.5412 37.1212 68.7422C37.1212 68.9431 37.201 69.1358 37.3431 69.2778C37.4852 69.4199 37.6778 69.4997 37.8788 69.4997ZM53.6332 54.8417C55.5728 54.1225 57.7001 54.0891 59.6613 54.747C59.2517 55.7553 58.6307 56.6639 57.84 57.4117C57.0493 58.1595 56.1075 58.7289 55.0779 59.0816C54.3701 59.2877 53.6271 59.3437 52.8964 59.2461C52.1656 59.1485 51.4633 58.8995 50.8344 58.515C51.2355 56.5737 52.1751 55.3389 53.6332 54.8417ZM49.9941 46.4892C50.4652 47.2386 50.7287 48.0998 50.7576 48.9846C50.738 49.2241 50.67 49.4572 50.5578 49.6698C50.4456 49.8823 50.2915 50.0699 50.1048 50.2213C50.0677 50.2065 50.0281 50.1993 49.9882 50.2001C49.9483 50.2009 49.9089 50.2097 49.8725 50.2259C49.6826 50.0634 49.5289 49.863 49.4212 49.6374C49.3136 49.4119 49.2544 49.1663 49.2476 48.9166C49.2746 48.0552 49.5324 47.2169 49.9941 46.4892ZM44.638 57.585C42.6153 56.4739 41.0739 54.6554 40.3093 52.478C41.4656 52.0468 42.7112 51.911 43.9333 52.0831C45.1553 52.2552 46.315 52.7297 47.3073 53.4634C47.9334 53.915 48.4379 54.5148 48.7756 55.2091C49.1133 55.9033 49.2737 56.6705 49.2424 57.4419V57.6297C48.3846 57.9459 46.3735 58.4978 44.638 57.585ZM42.5182 66.2357C43.6969 64.9018 46.0219 64.1967 49.2424 64.1967H50.7576C53.978 64.1967 56.303 64.9017 57.4818 66.2356C57.9219 66.7263 58.2109 67.3336 58.3141 67.9846H41.6859C41.7886 67.3335 42.0777 66.7261 42.5182 66.2357ZM71.9697 32.3179H66.6666V30.0452C66.6638 29.4433 66.4235 28.8668 65.9979 28.4412C65.5723 28.0156 64.9958 27.7753 64.3939 27.7725C63.7914 27.7731 63.2137 28.0128 62.7876 28.4389C62.3615 28.8649 62.1219 29.4426 62.1212 30.0452V32.3179H59.8485V30.0452C59.8457 29.4433 59.6053 28.8668 59.1797 28.4412C58.7541 28.0156 58.1776 27.7753 57.5757 27.7725C56.9732 27.7731 56.3955 28.0128 55.9694 28.4389C55.5433 28.8649 55.3037 29.4426 55.303 30.0452V32.3179H44.6969V30.0452C44.6941 29.4433 44.4538 28.8668 44.0282 28.4412C43.6026 28.0156 43.0261 27.7753 42.4242 27.7725C41.8217 27.7731 41.244 28.0128 40.8179 28.4389C40.3918 28.8649 40.1522 29.4426 40.1515 30.0452V32.3179H37.8788V30.0452C37.876 29.4433 37.6356 28.8668 37.21 28.4412C36.7844 28.0156 36.2079 27.7753 35.606 27.7725C35.0035 27.7731 34.4258 28.0128 33.9997 28.4389C33.5736 28.8649 33.334 29.4426 33.3333 30.0452V32.3179H28.0303C27.8294 32.3179 27.6367 32.3977 27.4946 32.5398C27.3525 32.6819 27.2727 32.8746 27.2727 33.0755V72.4694C27.2727 72.6704 27.3525 72.863 27.4946 73.0051C27.6367 73.1472 27.8294 73.227 28.0303 73.227H71.9697C72.1706 73.227 72.3633 73.1472 72.5054 73.0051C72.6474 72.863 72.7273 72.6704 72.7273 72.4694V33.0755C72.7273 32.8746 72.6474 32.6819 72.5054 32.5398C72.3633 32.3977 72.1706 32.3179 71.9697 32.3179ZM63.6363 30.0452C63.6365 29.8443 63.7163 29.6517 63.8584 29.5096C64.0004 29.3676 64.193 29.2877 64.3939 29.2876C64.495 29.2874 64.5951 29.3079 64.688 29.3479C64.7809 29.3878 64.8646 29.4463 64.934 29.5199C65.0037 29.5883 65.0589 29.6701 65.0962 29.7604C65.1336 29.8506 65.1524 29.9475 65.1515 30.0452V35.3482C65.1515 35.5491 65.0717 35.7418 64.9296 35.8839C64.7875 36.026 64.5948 36.1058 64.3939 36.1058C64.193 36.1058 64.0003 36.026 63.8582 35.8839C63.7162 35.7418 63.6363 35.5491 63.6363 35.3482V30.0452ZM56.8182 30.0452C56.8183 29.8443 56.8981 29.6517 57.0402 29.5096C57.1822 29.3676 57.3749 29.2877 57.5757 29.2876C57.6768 29.2874 57.7769 29.3079 57.8698 29.3479C57.9627 29.3878 58.0464 29.4463 58.1158 29.5199C58.1855 29.5883 58.2407 29.6701 58.2781 29.7604C58.3154 29.8506 58.3342 29.9475 58.3333 30.0452V35.3482C58.3333 35.5491 58.2535 35.7418 58.1114 35.8839C57.9694 36.026 57.7767 36.1058 57.5757 36.1058C57.3748 36.1058 57.1821 36.026 57.04 35.8839C56.898 35.7418 56.8182 35.5491 56.8182 35.3482V30.0452ZM41.6666 30.0452C41.6668 29.8443 41.7466 29.6517 41.8887 29.5096C42.0307 29.3676 42.2233 29.2877 42.4242 29.2876C42.5253 29.2874 42.6254 29.3079 42.7183 29.3479C42.8112 29.3878 42.8949 29.4463 42.9643 29.5199C43.034 29.5883 43.0892 29.6701 43.1265 29.7604C43.1639 29.8506 43.1827 29.9475 43.1818 30.0452V35.3482C43.1818 35.5491 43.102 35.7418 42.9599 35.8839C42.8178 36.026 42.6251 36.1058 42.4242 36.1058C42.2233 36.1058 42.0306 36.026 41.8885 35.8839C41.7465 35.7418 41.6666 35.5491 41.6666 35.3482V30.0452ZM34.8485 30.0452C34.8486 29.8443 34.9284 29.6517 35.0705 29.5096C35.2125 29.3676 35.4052 29.2877 35.606 29.2876C35.7071 29.2874 35.8072 29.3079 35.9001 29.3479C35.993 29.3878 36.0767 29.4463 36.1461 29.5199C36.2158 29.5883 36.271 29.6701 36.3084 29.7604C36.3457 29.8506 36.3645 29.9475 36.3636 30.0452V35.3482C36.3636 35.5491 36.2838 35.7418 36.1417 35.8839C35.9997 36.026 35.807 36.1058 35.606 36.1058C35.4051 36.1058 35.2124 36.026 35.0704 35.8839C34.9283 35.7418 34.8485 35.5491 34.8485 35.3482V30.0452ZM33.3333 33.8331V35.3482C33.3333 35.951 33.5728 36.5291 33.999 36.9553C34.4252 37.3815 35.0033 37.6209 35.606 37.6209C36.2088 37.6209 36.7869 37.3815 37.2131 36.9553C37.6393 36.5291 37.8788 35.951 37.8788 35.3482V33.8331H40.1515V35.3482C40.1515 35.951 40.3909 36.5291 40.8172 36.9553C41.2434 37.3815 41.8215 37.6209 42.4242 37.6209C43.027 37.6209 43.6051 37.3815 44.0313 36.9553C44.4575 36.5291 44.6969 35.951 44.6969 35.3482V33.8331H55.303V35.3482C55.303 35.951 55.5425 36.5291 55.9687 36.9553C56.3949 37.3815 56.973 37.6209 57.5757 37.6209C58.1785 37.6209 58.7566 37.3815 59.1828 36.9553C59.609 36.5291 59.8485 35.951 59.8485 35.3482V33.8331H62.1212V35.3482C62.1212 35.951 62.3606 36.5291 62.7869 36.9553C63.2131 37.3815 63.7912 37.6209 64.3939 37.6209C64.9967 37.6209 65.5748 37.3815 66.001 36.9553C66.4272 36.5291 66.6666 35.951 66.6666 35.3482V33.8331H71.2121V40.6512H28.7879V33.8331H33.3333ZM71.2121 71.7119H28.7879V42.1664H71.2121V71.7119Z" fill="black"/>
</svg>
