<svg width="100" height="100" viewBox="0 0 100 100" fill="none" xmlns="http://www.w3.org/2000/svg">
<rect width="100" height="100" rx="50" fill="#F9D880"/>
<path d="M44.9492 39.8667C43.9223 39.8804 42.9158 39.5793 42.0651 39.004C39.4238 37.1978 38.4122 32.7668 39.0541 25.838C39.0671 25.6925 39.1145 25.5521 39.1926 25.4286C39.2706 25.305 39.3769 25.2018 39.5028 25.1276C39.6286 25.0533 39.7704 25.0101 39.9163 25.0016C40.0621 24.993 40.2079 25.0193 40.3416 25.0784C40.6653 25.2163 48.2857 28.5437 49.5181 33.5173C49.7403 34.4765 49.7265 35.4754 49.4779 36.4281C49.2293 37.3808 48.7533 38.2591 48.0908 38.9875C48.008 39.0901 47.9046 39.174 47.7873 39.234C46.8966 39.6432 45.9293 39.8588 44.9492 39.8667ZM40.7794 27.3389C40.349 34.0599 41.7726 36.5669 43.0914 37.4774C43.6495 37.7966 44.2749 37.9797 44.917 38.0117C45.5591 38.0436 46.1997 37.9236 46.7867 37.6613C47.223 37.1621 47.5354 36.5669 47.6984 35.9241C47.8614 35.2814 47.8704 34.6093 47.7247 33.9624C46.9688 30.9054 42.8431 28.4149 40.7794 27.3389Z" fill="black"/>
<path d="M36.8706 53.4964C34.7777 53.4653 32.6922 53.2405 30.6408 52.8251C30.4982 52.7982 30.3641 52.7379 30.2493 52.6492C30.1345 52.5605 30.0423 52.446 29.9802 52.3148C29.9181 52.1837 29.888 52.0398 29.8922 51.8948C29.8964 51.7498 29.9348 51.6078 30.0043 51.4805C30.1736 51.1715 34.2072 43.9024 39.2746 43.1483C40.2509 43.0161 41.2447 43.1235 42.1702 43.4613C43.0957 43.799 43.925 44.357 44.5867 45.087C44.6796 45.1799 44.7528 45.2906 44.8019 45.4125C45.1527 46.3468 45.266 47.3535 45.1315 48.3424C44.9969 49.3312 44.6189 50.2711 44.0312 51.0777C42.6885 52.6798 40.29 53.4964 36.8706 53.4964ZM32.2888 51.2396C38.9546 52.3064 41.5904 51.1237 42.6167 49.8913C42.9869 49.3684 43.2276 48.7651 43.3191 48.131C43.4105 47.4969 43.3501 46.8501 43.1428 46.2439C42.6862 45.7621 42.1226 45.3945 41.4976 45.1708C40.8725 44.9471 40.2037 44.8737 39.545 44.9564C36.637 45.3905 33.7511 48.9827 32.2888 51.2396Z" fill="black"/>
<path d="M56.5314 48.0406C55.7086 48.051 54.89 47.921 54.1109 47.6562C53.188 47.3126 52.362 46.7507 51.7034 46.0184C51.0449 45.2862 50.5734 44.4055 50.3292 43.4515C50.2886 43.3264 50.276 43.1939 50.2924 43.0634C50.419 42.0721 50.7905 41.1279 51.3734 40.3161C51.9562 39.5043 52.732 38.8504 53.6308 38.4135C56.5884 37.2032 60.8465 38.7979 66.2781 43.1498C66.3913 43.2405 66.4815 43.3568 66.5412 43.489C66.6009 43.6213 66.6285 43.7658 66.6217 43.9107C66.6149 44.0557 66.5739 44.1969 66.502 44.323C66.4301 44.449 66.3295 44.5563 66.2082 44.636C63.3108 46.5477 59.9875 47.7169 56.5314 48.0406ZM52.1501 43.0983C52.3263 43.7384 52.6515 44.3277 53.0991 44.8181C53.5466 45.3085 54.1038 45.686 54.7252 45.9199C57.7068 46.9756 62.0476 44.9027 64.0764 43.7715C58.6945 39.7029 55.8122 39.5208 54.3279 40.1223C53.7551 40.4103 53.2589 40.8304 52.8803 41.3478C52.5016 41.8652 52.2514 42.4652 52.1501 43.0983Z" fill="black"/>
<path d="M45.7899 67.7623C45.7218 67.7621 45.654 67.7547 45.5875 67.7402C45.4694 67.7135 45.3577 67.6638 45.2589 67.5938C45.16 67.5238 45.076 67.435 45.0116 67.3325C44.9471 67.2299 44.9036 67.1157 44.8834 66.9962C44.8633 66.8768 44.8669 66.7546 44.8941 66.6366C48.9664 48.692 46.5035 38.7374 46.4759 38.64C46.4145 38.4038 46.4493 38.153 46.5728 37.9426C46.6963 37.7322 46.8983 37.5794 47.1344 37.518C47.3705 37.4565 47.6214 37.4913 47.8318 37.6148C48.0422 37.7383 48.195 37.9403 48.2564 38.1764C48.3649 38.594 50.872 48.6092 46.6856 67.0541C46.638 67.2558 46.5235 67.4355 46.361 67.5641C46.1984 67.6926 45.9971 67.7625 45.7899 67.7623Z" fill="black"/>
<path d="M48.1606 48.6057C47.9893 48.6056 47.8213 48.5578 47.6757 48.4674C47.5301 48.3771 47.4127 48.2478 47.3366 48.0943C47.0206 47.5433 46.5389 47.1059 45.96 46.8443C45.3812 46.5828 44.7346 46.5104 44.1122 46.6376C43.9932 46.6602 43.8709 46.6591 43.7524 46.6343C43.6338 46.6095 43.5213 46.5616 43.4213 46.4932C43.3214 46.4249 43.2359 46.3374 43.1698 46.2359C43.1037 46.1345 43.0583 46.0209 43.0362 45.9018C42.9901 45.6639 43.0398 45.4174 43.1745 45.2159C43.3091 45.0144 43.5179 44.8742 43.7554 44.8258C44.7744 44.6121 45.8352 44.7352 46.7782 45.1763C47.7213 45.6175 48.4956 46.353 48.9846 47.2721C49.0923 47.4905 49.1091 47.7426 49.0311 47.9733C48.9532 48.204 48.787 48.3943 48.5689 48.5026C48.4428 48.5687 48.3029 48.604 48.1606 48.6057Z" fill="black"/>
<path d="M51.2874 43.6904C51.2319 43.69 51.1766 43.6851 51.1219 43.6757L47.7761 43.0724C47.5377 43.0273 47.3267 42.8899 47.1891 42.6899C47.0516 42.49 46.9987 42.2438 47.0419 42.005C47.085 41.7662 47.2209 41.5541 47.4198 41.4151C47.6186 41.276 47.8644 41.2211 48.1035 41.2625L51.4493 41.8658C51.6751 41.9067 51.8775 42.0305 52.0167 42.213C52.1559 42.3955 52.2218 42.6234 52.2015 42.852C52.1812 43.0806 52.0762 43.2934 51.9071 43.4485C51.738 43.6036 51.5169 43.6899 51.2874 43.6904Z" fill="black"/>
<path d="M69.1898 75.0003H31.0823C30.8422 75.0003 30.6115 74.9065 30.4397 74.7388C30.2678 74.571 30.1684 74.3427 30.1626 74.1027C29.9847 72.4982 30.2982 70.8775 31.0615 69.455C31.8248 68.0325 33.0019 66.8753 34.4373 66.1365C35.3022 65.7474 36.0564 65.1487 36.6316 64.3946C38.2169 62.4931 40.0974 60.8585 42.2011 59.5535C43.448 58.7154 44.8502 58.1356 46.3249 57.8485C47.7996 57.5613 49.3169 57.5725 50.7872 57.8815C53.9886 58.5272 56.9038 60.169 59.1157 62.5718C60.1687 63.689 61.5265 64.4725 63.0207 64.825C67.4351 65.8311 69.9587 73.4699 70.0635 73.7973C70.1082 73.9352 70.1196 74.0817 70.0968 74.2249C70.0741 74.368 70.0178 74.5038 69.9327 74.621C69.8475 74.7383 69.7358 74.8338 69.6067 74.8997C69.4776 74.9656 69.3348 75.0001 69.1898 75.0003ZM32.0167 73.1609H67.8673C66.9146 70.8286 64.9593 67.1536 62.6105 66.6184C60.773 66.1834 59.101 65.225 57.7969 63.8594C55.8537 61.7363 53.2898 60.2808 50.4708 59.7006C49.2343 59.4357 47.9572 59.4212 46.715 59.6582C45.4728 59.8951 44.2907 60.3786 43.2385 61.0801C41.3071 62.2564 39.5805 63.74 38.127 65.4725C37.3789 66.475 36.3901 67.2727 35.2521 67.7919C34.2643 68.2942 33.4373 69.0637 32.8653 70.0129C32.2933 70.9621 31.9993 72.0528 32.0167 73.1609Z" fill="black"/>
</svg>
