<svg width="38" height="38" viewBox="0 0 38 38" fill="none" xmlns="http://www.w3.org/2000/svg">
<circle cx="19.1539" cy="19.1535" r="18.2692" fill="#F9D880"/>
<path d="M16.9644 14.1974C17.4307 14.0019 17.6263 13.4453 17.4157 12.994L16.6786 11.4446C16.468 11.0086 15.9566 10.8129 15.5053 11.0086C14.2267 11.5501 13.1286 12.2571 12.2561 13.1145C11.1881 14.1222 10.466 15.2805 10.0749 16.5591C9.6838 17.8529 9.47321 19.6128 9.47321 21.8541V26.4722C9.47321 26.9686 9.87936 27.3748 10.3758 27.3748H16.2875C16.7839 27.3748 17.1901 26.9686 17.1901 26.4722V20.5605C17.1901 20.0639 16.7839 19.6579 16.2875 19.6579H13.4595C13.4896 18.1385 13.8506 16.9202 14.5125 16.0024C15.054 15.2656 15.8663 14.6639 16.9644 14.1974Z" fill="#2A3D36"/>
<path d="M27.5845 14.1975C28.0508 14.0019 28.2462 13.4453 28.0358 12.9941L27.2987 11.4599C27.0881 11.0236 26.5767 10.8281 26.1254 11.0236C24.8618 11.5652 23.7786 12.2722 22.8912 13.1145C21.823 14.1374 21.0861 15.2957 20.6948 16.5744C20.3037 17.8378 20.1083 19.5979 20.1083 21.8543V26.4724C20.1083 26.9688 20.5145 27.375 21.0109 27.375H26.9226C27.419 27.375 27.8252 26.9688 27.8252 26.4724V20.5606C27.8252 20.0641 27.419 19.6581 26.9226 19.6581H24.0796C24.1097 18.1386 24.4708 16.9203 25.1326 16.0026C25.6741 15.2656 26.4864 14.6639 27.5845 14.1975Z" fill="#2A3D36"/>
</svg>
