<svg width="196" height="26" viewBox="0 0 196 26" fill="none" xmlns="http://www.w3.org/2000/svg">
<g clip-path="url(#clip0_40_813)">
<path d="M1.45015 17.2035C46.3788 12.6919 91.4159 9.43165 136.561 7.4228C149.419 6.85291 162.28 6.38868 175.142 6.03013C176.978 5.98026 176.844 -0.0498696 174.994 0.00355728C129.855 1.27156 84.7758 3.80759 39.7553 7.61158C26.935 8.69912 14.1218 9.88638 1.31575 11.1734C-0.580055 11.3657 -0.297084 17.378 1.46431 17.1999L1.45015 17.2035Z" fill="#F9D880"/>
<path d="M24.9001 25.9477C68.968 20.263 113.18 15.8535 157.536 12.7192C169.896 11.8453 182.266 11.0736 194.645 10.404C195.625 10.3506 195.526 7.16986 194.567 7.22329C150.205 9.63344 105.934 13.3258 61.755 18.3005C49.437 19.6896 37.132 21.1784 24.84 22.767C23.8284 22.8952 24.0088 26.0652 24.9178 25.9477H24.9001Z" fill="#F9D880"/>
</g>
<defs>
<clipPath id="clip0_40_813">
<rect width="196" height="25.9512" fill="white"/>
</clipPath>
</defs>
</svg>
