<svg width="100" height="100" viewBox="0 0 100 100" fill="none" xmlns="http://www.w3.org/2000/svg">
<rect width="100" height="100" rx="50" fill="#F9D880"/>
<path d="M34.9666 37.7033C35.4075 37.8839 35.8083 38.1499 36.146 38.486C36.4837 38.8221 36.7517 39.2216 36.9344 39.6615C37.6438 41.3932 39.4103 44.4515 43.2705 45.4774C43.3827 45.5067 43.4963 45.5303 43.6109 45.5482C44.2583 46.24 45.0193 46.8159 45.8609 47.2511C46.1888 47.4213 46.5527 47.5102 46.9221 47.5105C47.0898 47.5105 47.2571 47.4919 47.4208 47.4551C48.1681 48.0378 48.8715 48.6749 49.5253 49.361C50.3324 50.1938 50.8936 51.2335 51.1471 52.3652C51.2419 52.7409 51.3841 53.1031 51.5703 53.4429C50.0765 54.7538 48.4644 55.9234 46.7547 56.9367C46.4293 57.1295 46.1492 57.3899 45.9332 57.7004C45.7173 58.0109 45.5705 58.3641 45.503 58.7363C45.4359 59.1043 45.4487 59.4824 45.5405 59.845C45.6322 60.2077 45.8008 60.5463 46.0349 60.8382C49.8822 65.6304 54.866 69.147 60.8481 71.292C64.8107 72.6979 68.9717 73.4648 73.1752 73.564H73.2418C73.6672 73.5633 74.0873 73.4697 74.4727 73.2898C74.8582 73.1099 75.1998 72.8481 75.4736 72.5226C75.7475 72.1971 75.947 71.8157 76.0582 71.4051C76.1694 70.9945 76.1897 70.5646 76.1177 70.1454C75.27 65.2065 72.9919 60.191 69.3462 55.238C66.8436 51.8752 63.9816 48.7954 60.811 46.0533C60.5053 45.7866 60.1417 45.5944 59.7491 45.4921C59.3564 45.3898 58.9453 45.3801 58.5483 45.4638C58.1567 45.5427 57.7888 45.7115 57.4736 45.9569C57.1584 46.2022 56.9045 46.5175 56.7319 46.8777C56.2135 47.9416 55.593 48.9525 54.879 49.8963C54.8384 49.9503 54.8089 50.0119 54.7922 50.0773C54.7754 50.1428 54.7717 50.211 54.7812 50.2779C54.7908 50.3448 54.8134 50.4092 54.8479 50.4673C54.8823 50.5255 54.9279 50.5763 54.9819 50.6168C55.036 50.6574 55.0975 50.6869 55.163 50.7037C55.2285 50.7205 55.2966 50.7242 55.3635 50.7146C55.4305 50.705 55.4948 50.6824 55.553 50.648C55.6112 50.6135 55.662 50.568 55.7025 50.5139C56.4567 49.5166 57.1121 48.4484 57.6594 47.3242C57.7638 47.1068 57.9173 46.9165 58.1077 46.7685C58.2981 46.6205 58.5203 46.5187 58.7568 46.4713C58.999 46.4202 59.2498 46.4261 59.4893 46.4885C59.7289 46.5509 59.9507 46.6681 60.1372 46.8308C63.999 50.1761 73.188 59.1614 75.1027 70.319C75.1501 70.5941 75.1361 70.8763 75.0617 71.1454C74.9873 71.4145 74.8544 71.6637 74.6723 71.8754C74.4903 72.0871 74.2638 72.2558 74.0089 72.3697C73.754 72.4835 73.4771 72.5396 73.198 72.5339C68.16 72.4204 55.5068 70.9911 46.8374 60.1926C46.6956 60.0158 46.5935 59.8105 46.538 59.5908C46.4825 59.3711 46.4748 59.142 46.5156 58.919C46.5568 58.692 46.6464 58.4764 46.7782 58.287C46.91 58.0976 47.081 57.9387 47.2796 57.8211C48.9875 56.8088 50.6014 55.6457 52.1021 54.3458C53.4188 56.303 55.1436 57.9519 57.158 59.1793C57.3734 59.313 57.6217 59.3843 57.8752 59.3852C58.1494 59.3814 58.4162 59.2957 58.6412 59.139C58.8663 58.9824 59.0393 58.7619 59.138 58.5061C59.2367 58.2502 59.2566 57.9707 59.1951 57.7035C59.1336 57.4362 58.9936 57.1935 58.793 57.0065C56.3778 54.7938 54.8406 52.6821 54.3477 50.9001C54.1333 50.1455 53.8074 49.4271 53.3806 48.7689C52.5787 47.5135 51.2968 45.8043 49.715 44.7148C49.717 44.2712 49.5938 43.8361 49.3594 43.4595C48.9383 42.783 48.2349 41.853 47.2668 41.2195C46.5647 38.9954 44.8875 36.036 40.8813 34.3949C40.4376 34.2136 40.0343 33.9459 39.6949 33.6074C39.3554 33.2689 39.0867 32.8663 38.9041 32.423C38.1897 30.6598 36.406 27.551 32.4863 26.5407C31.9257 26.3933 31.3358 26.3992 30.7782 26.5578C30.2206 26.7164 29.7159 27.0219 29.3168 27.4423C28.9078 27.8592 28.6184 28.3784 28.4787 28.9455C28.339 29.5126 28.3542 30.1068 28.5227 30.666C29.1975 32.9489 30.8627 36.0232 34.9666 37.7033ZM49.36 45.9283C49.3894 45.8829 49.4169 45.8366 49.4424 45.7895C50.7433 46.7851 51.8175 48.2351 52.5134 49.3233C52.8848 49.8951 53.1687 50.5191 53.3558 51.1748C53.9081 53.1714 55.5028 55.389 58.0978 57.7658C58.158 57.8227 58.1952 57.8997 58.2022 57.9822C58.2093 58.0647 58.1857 58.147 58.136 58.2132C58.0863 58.2794 58.0139 58.3251 57.9327 58.3413C57.8515 58.3576 57.7672 58.3435 57.6958 58.3015C54.2918 56.2185 52.379 53.2217 52.1546 52.1527C51.8621 50.8351 51.2112 49.6238 50.2738 48.6527C49.6956 48.0448 49.0797 47.4738 48.4297 46.9432C48.7941 46.659 49.1085 46.316 49.36 45.9283ZM47.4234 42.6649C47.8291 43.0677 48.1856 43.5172 48.4856 44.0039C48.6157 44.2078 48.6856 44.4442 48.6872 44.6861C48.6888 44.9279 48.622 45.1653 48.4946 45.3708C48.2686 45.722 47.9747 46.0245 47.6303 46.2607C47.4414 46.3897 47.221 46.4649 46.9927 46.4783C46.7643 46.4916 46.5366 46.4426 46.334 46.3364C45.8695 46.0949 45.4322 45.8046 45.0293 45.4704C45.6613 45.2924 46.2262 44.9307 46.6524 44.4313C47.0787 43.9318 47.347 43.3171 47.4234 42.6649ZM30.0578 28.1573C30.2649 27.9395 30.5141 27.7659 30.7902 27.6471C31.0663 27.5283 31.3636 27.4667 31.6641 27.4661C31.855 27.4663 32.045 27.4906 32.2297 27.5385C35.5385 28.3907 37.1665 30.8757 37.9503 32.8101C38.1846 33.3804 38.5299 33.8985 38.9662 34.3343C39.4024 34.77 39.9209 35.1148 40.4915 35.3485C44.1712 36.8555 45.6855 39.5798 46.3077 41.5998C46.4311 41.99 46.447 42.4064 46.3537 42.8049C46.2605 43.2034 46.0615 43.5695 45.7778 43.8645C45.4941 44.1595 45.1361 44.3726 44.7415 44.4812C44.3468 44.5899 43.9302 44.5902 43.5355 44.4821C40.2772 43.6162 38.6658 41.1705 37.8875 39.271C37.6526 38.7048 37.3081 38.1907 36.8737 37.7582C36.4394 37.3257 35.9238 36.9833 35.3566 36.7508C31.6308 35.2254 30.1213 32.442 29.5105 30.3745C29.3948 29.9898 29.3845 29.581 29.4808 29.191C29.5771 28.801 29.7764 28.444 30.0578 28.1573Z" fill="black"/>
</svg>
